<svg width="3978" height="4165" viewBox="0 0 3978 4165" fill="none" xmlns="http://www.w3.org/2000/svg">
<rect width="3978" height="4165" fill="white"/>
<path d="M987.245 1967.03H2989.27V2883.97C2989.27 3377.13 2752.73 3854.44 2262.31 3906.46C2180.72 3915.11 2091.75 3920.14 1995.13 3920.14C1902.79 3920.14 1817.18 3915.55 1738.15 3907.58C1234.39 3856.83 987.245 3367.44 987.245 2861.13V1967.03Z" fill="black"/>
<path d="M1989.04 419.384C1989.04 419.384 2511.41 408.149 2811.17 904.759C3042.57 1288.13 2988.52 1886.57 2988.52 1886.57H1989.04V419.384Z" fill="black"/>
<path d="M1927.52 419.546C1927.52 419.546 1434.51 368.879 1118.98 847.693C975.758 1065.03 984.091 1583.66 984.091 1583.66H1927.52V419.546Z" fill="black"/>
</svg>
